<svg xmlns="http://www.w3.org/2000/svg" viewBox="0 0 1200 900" role="img">
  <defs><linearGradient id="bg" x1="0" y1="0" x2="1" y2="1"><stop stop-color="#17201d"/><stop offset="1" stop-color="#344b43"/></linearGradient><radialGradient id="glow"><stop stop-color="#c4f7d4"/><stop offset="1" stop-color="#7fd6a0" stop-opacity="0"/></radialGradient></defs>
  <rect width="1200" height="900" rx="72" fill="url(#bg)"/><circle cx="900" cy="180" r="360" fill="url(#glow)" opacity=".55"/>
  <g fill="none" stroke="#d7ffe3" stroke-width="18" stroke-linecap="round" opacity=".84"><path d="M300 640C200 500 250 290 445 236c87-24 162 15 199 82 72-36 165-18 221 55 74 96 41 235-63 291-75 40-174 24-229-37-63 73-191 81-273 13Z"/><path d="M453 282c-51 64-42 151 24 205-59 48-75 135-33 201M648 321c-57 55-70 138-25 205 44 65 126 91 198 63"/></g>
  <g fill="#d7ffe3"><circle cx="451" cy="286" r="25"/><circle cx="476" cy="488" r="25"/><circle cx="444" cy="687" r="25"/><circle cx="648" cy="321" r="25"/><circle cx="624" cy="526" r="25"/><circle cx="821" cy="589" r="25"/></g>
</svg>
